<?xml version="1.0" standalone="no"?><!DOCTYPE svg PUBLIC "-//W3C//DTD SVG 1.1//EN" "http://www.w3.org/Graphics/SVG/1.1/DTD/svg11.dtd"><svg t="1519627168721" class="icon" style="" viewBox="0 0 1024 1024" version="1.1" xmlns="http://www.w3.org/2000/svg" p-id="6244" xmlns:xlink="http://www.w3.org/1999/xlink" width="128" height="128"><defs><style type="text/css"></style></defs><path d="M108.8 128C108.8 64 160 19.2 217.6 19.2h582.4c57.6 0 108.8 51.2 108.8 108.8v672c0 64-38.4 128-108.8 121.6H217.6c-57.6 0-108.8-51.2-108.8-108.8V460.8" fill="#E1696B" p-id="6245"></path><path d="M691.2 25.6h128v704h-128z" fill="#FFC863" p-id="6246"></path><path d="M908.8 652.8s-25.6 76.8-102.4 76.8H211.2s-102.4-6.4-102.4 102.4c0 102.4 108.8 96 108.8 96h595.2s102.4 0 102.4-134.4-6.4-140.8-6.4-140.8z m0 0" fill="#FFFFFF" p-id="6247"></path><path d="M108.8 332.8c-12.8 0-19.2-6.4-19.2-19.2V211.2c0-6.4 12.8-19.2 19.2-19.2 12.8 0 19.2 12.8 19.2 19.2v102.4c0 12.8-6.4 19.2-19.2 19.2z" fill="#5F135D" p-id="6248"></path><path d="M531.2 947.2h-320s-51.2 6.4-83.2-25.6c-25.6-19.2-38.4-51.2-38.4-89.6V435.2c0-12.8 6.4-19.2 19.2-19.2 12.8-12.8 19.2 0 19.2 6.4v396.8c0 25.6 6.4 51.2 25.6 64 25.6 19.2 57.6 19.2 57.6 19.2h601.6c25.6 0 44.8-6.4 57.6-25.6 25.6-25.6 25.6-70.4 25.6-70.4V121.6C896 38.4 825.6 32 825.6 32H211.2C128 51.2 128 121.6 128 128c0 12.8-6.4 19.2-19.2 19.2-6.4 0-19.2-6.4-19.2-19.2 0-38.4 19.2-115.2 108.8-128h614.4c38.4 0 108.8 25.6 108.8 128v678.4s6.4 57.6-32 96c-19.2 25.6-51.2 32-89.6 38.4-32 6.4-153.6 6.4-268.8 6.4z" fill="#5F135D" p-id="6249"></path><path d="M819.2 736c-12.8 0-19.2-6.4-19.2-19.2l6.4-627.2c0-12.8 6.4-19.2 19.2-19.2 12.8 0 19.2 6.4 19.2 19.2l-6.4 627.2c0 12.8-6.4 19.2-19.2 19.2zM691.2 672c-12.8 0-19.2-6.4-19.2-19.2l6.4-627.2c0-12.8 6.4-19.2 19.2-19.2 12.8 0 19.2 6.4 19.2 19.2l-6.4 627.2c0 6.4-6.4 19.2-19.2 19.2z" fill="#5F135D" p-id="6250"></path><path d="M108.8 844.8c-12.8 0-19.2-6.4-19.2-19.2 0-38.4 12.8-70.4 32-89.6 32-32 83.2-32 83.2-32 6.4 0 531.2 6.4 614.4 0 64 0 76.8-57.6 76.8-64 0-12.8 12.8-19.2 19.2-19.2 12.8 0 19.2 12.8 19.2 19.2-6.4 32-32 89.6-115.2 96-83.2 6.4-595.2 0-614.4 0 0 0-32 0-51.2 19.2-19.2 25.6-25.6 44.8-25.6 70.4 0 12.8-6.4 19.2-19.2 19.2z" fill="#5F135D" p-id="6251"></path><path d="M825.6 851.2c-6.4 0-6.4 0 0 0l-620.8-6.4c-12.8 0-19.2-6.4-19.2-19.2 0-12.8 6.4-19.2 19.2-19.2l620.8 6.4s32 0 51.2-19.2c12.8-12.8 19.2-32 19.2-51.2 0-12.8 6.4-19.2 19.2-19.2 12.8 0 19.2 6.4 19.2 19.2 0 32-12.8 64-32 83.2-25.6 25.6-64 25.6-76.8 25.6z" fill="#5F135D" p-id="6252"></path><path d="M480 832v172.8l-76.8-102.4-76.8 102.4v-179.2l153.6 6.4z m0 0" fill="#FFC863" p-id="6253"></path><path d="M480 1024c-6.4 0-12.8 0-12.8-6.4l-64-70.4-64 70.4c-6.4 6.4-12.8 6.4-19.2 6.4-6.4 0-12.8-12.8-12.8-19.2v-179.2c0-12.8 6.4-19.2 19.2-19.2h153.6c12.8 0 19.2 6.4 19.2 19.2v179.2c0 6.4-6.4 12.8-12.8 19.2h-6.4z m-76.8-121.6c6.4 0 12.8 0 12.8 6.4l44.8 44.8v-108.8H345.6v108.8l44.8-44.8c0-6.4 6.4-6.4 12.8-6.4z" fill="#5F135D" p-id="6254"></path></svg>