<?xml version="1.0" standalone="no"?><!DOCTYPE svg PUBLIC "-//W3C//DTD SVG 1.1//EN" "http://www.w3.org/Graphics/SVG/1.1/DTD/svg11.dtd"><svg t="1519575466428" class="icon" style="" viewBox="0 0 1025 1024" version="1.1" xmlns="http://www.w3.org/2000/svg" p-id="2849" xmlns:xlink="http://www.w3.org/1999/xlink" width="64.0625" height="64"><defs><style type="text/css"></style></defs><path d="M334.4 814.4l480-480c56 12.8 116.8-1.6 160-44.8 43.2-43.2 57.6-104 44.8-160L880 267.2l-97.6-25.6L756.8 144 896 4.8c-56-12.8-116.8 1.6-160 44.8-43.2 43.2-57.6 104-44.8 160l-480 480c-56-12.8-116.8 1.6-160 44.8C-16 800-16 908.8 49.6 974.4c65.6 65.6 174.4 65.6 240 0 43.2-43.2 57.6-104 44.8-160m-139.2 137.6l-97.6-25.6-25.6-97.6L144 756.8l97.6 25.6 25.6 97.6-72 72" fill="#94989B" p-id="2850"></path><path d="M460.8 350.4l-89.6 92.8-88-91.2 88-92.8z" fill="#3E4347" p-id="2851"></path><path d="M267.2 81.6L110.4 243.2c-6.4 6.4-6.4 16 0 20.8l59.2 60.8 59.2 60.8c6.4 6.4 14.4 6.4 20.8 0L406.4 224c6.4-6.4 6.4-16 0-20.8L288 81.6c-4.8-6.4-14.4-6.4-20.8 0M4.8 352c-6.4 6.4-6.4 16 0 20.8L121.6 496c6.4 6.4 14.4 6.4 20.8 0 0 0 32-33.6 33.6-35.2l-137.6-142.4C36.8 318.4 4.8 352 4.8 352" fill="#94989B" p-id="2852"></path><path d="M168 326.4l-59.2-60.8s19.2 33.6-32 40c-20.8 3.2-33.6 6.4-40 12.8l137.6 142.4c6.4-8 9.6-20.8 12.8-41.6 6.4-52.8 38.4-32 38.4-32l-57.6-60.8M633.6 68.8C472-96 294.4 88 294.4 88l104 107.2s100.8-136 227.2-97.6c14.4 4.8 27.2 11.2 32 8 6.4-4.8-12.8-25.6-24-36.8" fill="#3E4347" p-id="2853"></path><path d="M416 396.8l-57.6 59.2s30.4 48 81.6 100.8c56 57.6 131.2 91.2 206.4 168 112 115.2 204.8 240 238.4 286.4 12.8 17.6 14.4 16 30.4 0l48-49.6L416 396.8" fill="#F2B200" p-id="2854"></path><path d="M416 396.8l57.6-59.2s46.4 30.4 97.6 83.2c56 57.6 88 136 163.2 212.8 112 115.2 232 211.2 278.4 246.4 17.6 12.8 16 16 0 32l-48 49.6L416 396.8" fill="#FFCE31" p-id="2855"></path></svg>